<?xml version="1.0" encoding="UTF-8"?>
<svg version="1.1" xmlns="http://www.w3.org/2000/svg" width="732" height="586">
<path d="M0 0 C241.56 0 483.12 0 732 0 C732 193.38 732 386.76 732 586 C490.44 586 248.88 586 0 586 C0 392.62 0 199.24 0 0 Z " fill="#08090A" transform="translate(0,0)"/>
<path d="M0 0 C2.13358959 0.76640437 4.28097048 1.4822349 6.43212891 2.19775391 C29.94827976 10.21451215 50.94094874 22.76947796 69.39990234 39.30175781 C70.86429594 40.61045178 72.34486561 41.90098314 73.82666016 43.18994141 C78.99115744 47.7225289 83.62026944 52.40039921 87.97509766 57.70947266 C88.40016602 58.2115625 88.82523437 58.71365234 89.26318359 59.23095703 C123.21556013 99.35861139 136.41846089 148.89836849 132.47119141 200.94384766 C131.36267322 213.52616126 129.6526248 225.60789807 125.66650391 237.61181641 C124.94145882 239.81152947 124.2687364 242.02325969 123.60009766 244.24072266 C120.39054828 254.64744337 116.14655954 264.14238609 110.97509766 273.70947266 C110.62044434 274.38252441 110.26579102 275.05557617 109.90039062 275.74902344 C102.6180006 289.5570639 93.76207924 301.39554083 82.97509766 312.70947266 C82.38341797 313.33370117 81.79173828 313.95792969 81.18212891 314.60107422 C50.2637466 347.02285527 6.2100297 371.35031642 -39.47900391 372.78662109 C-44.66327017 372.86790404 -49.84142481 372.81746177 -55.02490234 372.70947266 C-55.02490234 372.37947266 -55.02490234 372.04947266 -55.02490234 371.70947266 C-48.75490234 371.04947266 -42.48490234 370.38947266 -36.02490234 369.70947266 C-38.14669922 369.72107422 -40.26849609 369.73267578 -42.45458984 369.74462891 C-44.54312999 369.75246035 -46.63166842 369.75851377 -48.72021484 369.7644043 C-50.15544383 369.76938773 -51.59066785 369.7761769 -53.02587891 369.78491211 C-61.07590251 369.83262843 -69.02773997 369.77809016 -77.02490234 368.70947266 C-77.02490234 368.37947266 -77.02490234 368.04947266 -77.02490234 367.70947266 C-76.30012695 367.71470947 -75.57535156 367.71994629 -74.82861328 367.7253418 C-71.47738547 367.74640026 -68.12617167 367.75922326 -64.77490234 367.77197266 C-63.63537109 367.78035156 -62.49583984 367.78873047 -61.32177734 367.79736328 C-53.82609013 367.81865785 -46.48661933 367.42956236 -39.02490234 366.70947266 C-46.61490234 366.70947266 -54.20490234 366.70947266 -62.02490234 366.70947266 C-62.02490234 366.37947266 -62.02490234 366.04947266 -62.02490234 365.70947266 C-61.47253906 365.6844165 -60.92017578 365.65936035 -60.35107422 365.63354492 C-57.74228505 365.51439869 -55.13358776 365.39336937 -52.52490234 365.27197266 C-51.57687744 365.22830566 -50.62885254 365.18463867 -49.65209961 365.13964844 C-45.16757848 364.92780504 -40.68710231 364.69969116 -36.20849609 364.38525391 C-35.12568359 364.3097229 -35.12568359 364.3097229 -34.02099609 364.23266602 C-32.07267592 364.09241099 -30.12493687 363.94415022 -28.17724609 363.79541016 C-25.02490234 363.70947266 -25.02490234 363.70947266 -23.11791992 364.2668457 C-20.52640107 364.81489466 -18.93234093 364.40219815 -16.38427734 363.70556641 C-15.48660645 363.46273926 -14.58893555 363.21991211 -13.6640625 362.96972656 C-12.71063965 362.69821777 -11.7572168 362.42670898 -10.77490234 362.14697266 C-9.29642822 361.7319751 -9.29642822 361.7319751 -7.78808594 361.30859375 C6.5720294 357.19537144 19.80107383 351.73276949 32.97509766 344.70947266 C33.98958984 344.17837891 35.00408203 343.64728516 36.04931641 343.10009766 C50.08297715 335.36531056 62.47277048 324.77978754 73.97509766 313.70947266 C74.60287109 313.13326172 75.23064453 312.55705078 75.87744141 311.96337891 C98.72599345 290.40509804 118.72368048 256.1001031 122.97509766 224.83447266 C123.12849609 223.74392578 123.28189453 222.65337891 123.43994141 221.52978516 C123.61654297 220.26908203 123.79314453 219.00837891 123.97509766 217.70947266 C124.22383438 216.10230269 124.47531289 214.49555554 124.72900391 212.88916016 C127.90590822 192.67704449 130.74428517 170.89335551 125.97509766 150.70947266 C125.27308125 154.45356015 124.91590687 157.27388915 125.43212891 161.07275391 C130.462057 198.10704181 120.89328846 235.59068157 103.73681641 268.26416016 C101.92889629 271.69889594 101.92889629 271.69889594 100.43994141 275.32666016 C94.58865385 288.83923355 83.93246327 300.08099933 73.97509766 310.70947266 C73.27175293 311.46381592 73.27175293 311.46381592 72.55419922 312.23339844 C60.3058021 325.26268042 46.4270906 334.8421358 30.97509766 343.70947266 C30.04117188 344.29172607 30.04117188 344.29172607 29.08837891 344.88574219 C27.42757613 345.90198288 25.7039476 346.81387852 23.97509766 347.70947266 C22.98509766 347.37947266 21.99509766 347.04947266 20.97509766 346.70947266 C25.43360609 343.11789642 29.83665776 339.75513551 34.72509766 336.77197266 C51.63492888 326.03986644 71.78362186 312.09242425 80.97509766 293.70947266 C76.68509766 297.99947266 72.39509766 302.28947266 67.97509766 306.70947266 C67.31509766 306.37947266 66.65509766 306.04947266 65.97509766 305.70947266 C66.55775391 305.11263672 67.14041016 304.51580078 67.74072266 303.90087891 C84.55712591 286.10616288 97.55625032 264.93618394 105.2890625 241.72753906 C106.1872724 239.08533157 107.20915399 236.49580983 108.22509766 233.89697266 C111.58020608 224.59482655 113.20446553 214.98321414 113.76416016 205.13525391 C113.97509766 202.70947266 113.97509766 202.70947266 114.97509766 199.70947266 C115.1529956 197.07178295 115.28086948 194.45579717 115.36181641 191.81494141 C115.38734085 191.03113602 115.4128653 190.24733063 115.43916321 189.43977356 C115.49119237 187.77462357 115.54061684 186.10939048 115.58764648 184.4440918 C115.66121075 181.94410497 115.75232965 179.44517066 115.84423828 176.94580078 C116.15343871 167.26298975 115.73899832 158.26656302 113.97509766 148.70947266 C113.76369141 147.40751953 113.55228516 146.10556641 113.33447266 144.76416016 C110.29126339 128.88485027 105.84567291 113.82981903 98.02832031 99.63183594 C96.97624272 97.71156266 95.96411767 95.77399151 94.95556641 93.83056641 C87.47409778 79.69753589 77.64382416 63.76977018 65.28759766 53.39697266 C62.23223499 50.80247475 59.28128749 48.13082459 56.35009766 45.39697266 C26.97317661 18.98016884 -12.61865969 3.71889365 -52.02490234 2.70947266 C-53.20028564 2.65484863 -53.20028564 2.65484863 -54.39941406 2.59912109 C-94.44540165 0.7805855 -135.33749407 16.2537129 -166.02490234 41.70947266 C-166.60369141 42.18674805 -167.18248047 42.66402344 -167.77880859 43.15576172 C-171.93052041 46.59684036 -176.00139177 50.11958911 -180.02490234 53.70947266 C-180.88728516 54.47388672 -181.74966797 55.23830078 -182.63818359 56.02587891 C-215.74022899 87.17755829 -228.12777424 131.08661172 -233.02490234 174.70947266 C-233.35490234 174.70947266 -233.68490234 174.70947266 -234.02490234 174.70947266 C-234.02490234 169.75947266 -234.02490234 164.80947266 -234.02490234 159.70947266 C-235.01490234 167.95947266 -236.00490234 176.20947266 -237.02490234 184.70947266 C-237.35490234 184.70947266 -237.68490234 184.70947266 -238.02490234 184.70947266 C-238.36995079 170.69696686 -238.26758469 157.38355372 -235.02490234 143.70947266 C-234.76821777 142.61771729 -234.76821777 142.61771729 -234.50634766 141.50390625 C-233.40736798 136.88879213 -232.23303018 132.29709321 -231.02490234 127.70947266 C-230.68906898 126.37676682 -230.3542801 125.04378866 -230.02490234 123.70947266 C-230.35490234 124.69947266 -230.68490234 125.68947266 -231.02490234 126.70947266 C-231.68490234 126.70947266 -232.34490234 126.70947266 -233.02490234 126.70947266 C-231.68714404 119.63743146 -229.48686139 113.41153999 -226.58740234 106.83447266 C-226.14855713 105.83504639 -225.70971191 104.83562012 -225.25756836 103.8059082 C-218.79789483 89.41466452 -210.99901919 75.95120924 -201.02490234 63.70947266 C-200.21923828 62.70142578 -199.41357422 61.69337891 -198.58349609 60.65478516 C-168.20513613 23.27356535 -124.28719741 -2.92766696 -75.87646484 -8.00537109 C-50.27913368 -9.76116509 -24.33782646 -8.83009323 0 0 Z " fill="#393F42" transform="translate(419.02490234375,97.29052734375)"/>
<path d="M0 0 C-0.16381836 1.78759766 -0.16381836 1.78759766 -1 4 C-3.30297852 5.70068359 -3.30297852 5.70068359 -6.37890625 7.3984375 C-7.51666504 8.03604004 -8.65442383 8.67364258 -9.82666016 9.33056641 C-11.07190819 10.01210259 -12.31718889 10.69357908 -13.5625 11.375 C-14.83205244 12.082325 -16.10076281 12.79116338 -17.36865234 13.50146484 C-19.31585728 14.59203624 -21.26356094 15.68158998 -23.21398926 16.76638794 C-29.56792555 20.30095532 -35.85150148 23.94941498 -42.125 27.625 C-43.07576416 28.17978027 -44.02652832 28.73456055 -45.00610352 29.30615234 C-47.6741795 30.86519311 -50.34049294 32.42637232 -53 34 C-53.82851471 34.30964691 -54.65702942 34.61929382 -55.51065063 34.93832397 C-58.64006669 36.3148157 -60.6511413 37.49736809 -63 40 C-64.49664604 45.57315516 -64.3064615 51.03846728 -64.1953125 56.7734375 C-64.19910213 58.42397603 -64.20729446 60.07450981 -64.21969604 61.7250061 C-64.24046515 66.05615071 -64.20164112 70.38476741 -64.15020752 74.71557617 C-64.10827184 79.13984078 -64.12295658 83.5638825 -64.1328125 87.98828125 C-64.14381603 96.65963201 -64.09183764 105.32913138 -64 114 C-63.11441406 114.18175781 -63.11441406 114.18175781 -62.2109375 114.3671875 C-60 115 -60 115 -56.625 117.125 C-53.8212172 118.79276735 -53.06868002 119.0025437 -49.625 118.875 C-48.75875 118.58625 -47.8925 118.2975 -47 118 C-46.67 117.34 -46.34 116.68 -46 116 C-49.63 114.02 -53.26 112.04 -57 110 C-57 87.89 -57 65.78 -57 43 C-48.42 38.05 -39.84 33.1 -31 28 C-25.58859218 24.87615211 -25.58859218 24.87615211 -20.17724609 21.75219727 C-10.4642929 16.14557933 -0.74714442 10.54701128 9 5 C9.99 6.98 9.99 6.98 11 9 C10.33170166 9.3717334 9.66340332 9.7434668 8.97485352 10.12646484 C-6.96969476 18.98198209 -6.96969476 18.98198209 -22.75 28.125 C-29.28896448 31.99958045 -35.85080099 35.83201603 -42.4375 39.625 C-43.35692383 40.15883301 -44.27634766 40.69266602 -45.22363281 41.24267578 C-46.07666992 41.7323584 -46.92970703 42.22204102 -47.80859375 42.7265625 C-48.56970459 43.16564941 -49.33081543 43.60473633 -50.11499023 44.05712891 C-52 45 -52 45 -54 45 C-54 65.79 -54 86.58 -54 108 C-52.68 108.33 -51.36 108.66 -50 109 C-48.39125 110.051875 -48.39125 110.051875 -46.75 111.125 C-42.57799853 113.64087073 -39.65889088 112.98081913 -35 112 C-38.59522911 108.13004976 -38.59522911 108.13004976 -47 104 C-47 85.85 -47 67.7 -47 49 C-35.625 42.4375 -35.625 42.4375 -31.79833984 40.22998047 C-25.85723093 36.80265166 -19.9164804 33.37470506 -13.9765625 29.9453125 C-2.99739428 23.60729511 7.98195523 17.27026912 19 11 C19.99 12.98 19.99 12.98 21 15 C20.05253906 15.5261792 20.05253906 15.5261792 19.0859375 16.06298828 C6.14633322 23.25761335 -6.73490751 30.53018293 -19.50195312 38.02783203 C-20.41267578 38.56263184 -21.32339844 39.09743164 -22.26171875 39.6484375 C-23.16631836 40.21143555 -24.07091797 40.77443359 -25.00292969 41.35449219 C-28 43 -28 43 -31.77050781 44.27832031 C-35.90148185 45.7877841 -39.41771531 47.30669231 -42 51 C-44.50830853 59.30839783 -43.63244969 68.43341957 -43.375 77 C-43.35298052 79.42052319 -43.33728776 81.84111275 -43.328125 84.26171875 C-43.29197292 90.17721245 -43.1766769 96.08712363 -43 102 C-41.82630859 102.45971191 -41.82630859 102.45971191 -40.62890625 102.92871094 C-38.27734688 103.88698012 -36.19807979 104.99142206 -34 106.25 C-30.70688184 107.95658666 -30.70688184 107.95658666 -27 107.25 C-26.34 106.8375 -25.68 106.425 -25 106 C-28.59522911 102.13004976 -28.59522911 102.13004976 -37 98 C-37 83.81 -37 69.62 -37 55 C-25.625 48.4375 -25.625 48.4375 -21.79833984 46.22998047 C-14.72398671 42.14890155 -7.65031255 38.06665115 -0.57763672 33.98266602 C1.62581545 32.7111949 3.82990871 31.4408341 6.03466797 30.17163086 C10.59162797 27.54834159 15.14545169 24.92179721 19.671875 22.24609375 C20.33477539 21.85736084 20.99767578 21.46862793 21.68066406 21.06811523 C23.34240268 20.09252392 24.9995741 19.1091639 26.65625 18.125 C27.4296875 17.75375 28.203125 17.3825 29 17 C29.66 17.33 30.32 17.66 31 18 C31 18.99 31 19.98 31 21 C30.36835938 21.35078613 29.73671875 21.70157227 29.0859375 22.06298828 C16.14633322 29.25761335 3.26509249 36.53018293 -9.50195312 44.02783203 C-10.41267578 44.56263184 -11.32339844 45.09743164 -12.26171875 45.6484375 C-13.16631836 46.20370117 -14.07091797 46.75896484 -15.00292969 47.33105469 C-17.29315429 48.60638667 -19.34865783 49.55855128 -21.77050781 50.48925781 C-25.89869885 52.20052107 -28.79626592 53.80766909 -32 57 C-34.3730946 63.31218779 -33.63726838 70.38540231 -33.375 77 C-33.35297046 78.84238247 -33.33728349 80.68485234 -33.328125 82.52734375 C-33.29203478 87.02256361 -33.16959649 91.50791624 -33 96 C-32.21826416 96.30647461 -31.43652832 96.61294922 -30.63110352 96.92871094 C-27.58019671 98.17092854 -24.8124111 99.74411081 -21.96484375 101.390625 C-19.95520325 102.2276836 -19.95520325 102.2276836 -17.81640625 101.234375 C-15.85545137 100.11791072 -15.85545137 100.11791072 -15 98 C-16.051875 97.62875 -16.051875 97.62875 -17.125 97.25 C-20.52682468 95.77094579 -23.13764825 94.3883099 -26 92 C-26.55510842 89.23599777 -26.71103009 87.35343858 -26.5859375 84.609375 C-26.57744781 83.90476135 -26.56895813 83.20014771 -26.56021118 82.47418213 C-26.52671308 80.23120919 -26.45146048 77.99187901 -26.375 75.75 C-26.34489485 74.22661457 -26.31751997 72.70317256 -26.29296875 71.1796875 C-26.22694019 67.45194813 -26.12345129 63.72632975 -26 60 C-25.05253906 59.4738208 -25.05253906 59.4738208 -24.0859375 58.93701172 C-12.13843557 52.29401128 -0.23230146 45.59870966 11.5625 38.6875 C15.37467547 36.45777801 19.18715695 34.22858023 23 32 C23.84643066 31.50467773 24.69286133 31.00935547 25.56494141 30.49902344 C27.83009225 29.17817988 30.10119452 27.86837168 32.375 26.5625 C33.02927979 26.17860107 33.68355957 25.79470215 34.35766602 25.39916992 C35.87114394 24.53688986 37.4318414 23.75830135 39 23 C39.66 23.33 40.32 23.66 41 24 C41 24.99 41 25.98 41 27 C39.46859375 27.83917969 39.46859375 27.83917969 37.90625 28.6953125 C27.89520716 34.20660198 17.92891112 39.7963406 8.15014648 45.71264648 C3.1443043 48.71807604 -1.75469385 51.40208319 -7.1640625 53.61328125 C-15.46659625 57.05472168 -15.46659625 57.05472168 -22 63 C-24.72169917 71.70216873 -23.94504189 81.04455752 -23 90 C-21.85724609 90.42732422 -21.85724609 90.42732422 -20.69140625 90.86328125 C-18 92 -18 92 -14.9375 94.1875 C-12.27047319 96.23726154 -12.27047319 96.23726154 -9.875 95.8125 C-8.946875 95.4103125 -8.946875 95.4103125 -8 95 C-6.66666667 94.66666667 -5.33333333 94.33333333 -4 94 C-4 93.34 -4 92.68 -4 92 C-4.85948242 91.81183716 -4.85948242 91.81183716 -5.73632812 91.61987305 C-9.73606853 90.52460332 -13.08271221 89.00314038 -16 86 C-16.98288879 82.51744631 -16.76338218 79.27101718 -16.5 75.6875 C-16.46390625 74.75615234 -16.4278125 73.82480469 -16.390625 72.86523438 C-16.29656746 70.57258193 -16.16539029 68.28842909 -16 66 C-15.05253906 65.4738208 -15.05253906 65.4738208 -14.0859375 64.93701172 C-2.16412151 58.30829306 9.72119174 51.63026528 21.5 44.75 C22.48846924 44.17491699 23.47693848 43.59983398 24.49536133 43.00732422 C29.0694306 40.33749757 33.61409939 37.63512079 38.10546875 34.828125 C38.88535156 34.34762695 39.66523438 33.86712891 40.46875 33.37207031 C41.901676 32.4859519 43.32568844 31.58517752 44.73828125 30.66699219 C46.63671875 29.5 46.63671875 29.5 50 28 C52.32025146 28.74986267 52.32025146 28.74986267 55 30 C56.01378723 30.36134537 57.02757446 30.72269073 58.07208252 31.09498596 C61.70040798 32.70709143 64.19305778 34.17140605 67 37 C68.71133717 42.98754761 68.4025557 48.78803142 68.171875 54.96484375 C68.1494731 56.72597965 68.13240114 58.48719071 68.12042236 60.24842834 C68.07475518 64.86842947 67.95704206 69.48385092 67.82397461 74.10205078 C67.70086989 78.8206587 67.64633956 83.54001232 67.5859375 88.25976562 C67.45751341 97.50851506 67.25291649 106.75387576 67 116 C66.36806732 116.35616898 65.73613464 116.71233795 65.08505249 117.07929993 C48.29999702 126.53742351 48.29999702 126.53742351 31.625 136.1875 C30.64313721 136.76064941 29.66127441 137.33379883 28.6496582 137.92431641 C24.02388846 140.62736049 19.40945161 143.34715737 14.81640625 146.10546875 C13.63473877 146.81183472 13.63473877 146.81183472 12.42919922 147.5324707 C10.97811833 148.40150728 9.53028676 149.27600241 8.08642578 150.15698242 C3.33415347 153 3.33415347 153 0 153 C0.33722484 150.25086035 0.69176762 149.24302101 2.90405273 147.4987793 C3.73880127 147.02867432 4.5735498 146.55856934 5.43359375 146.07421875 C6.38008789 145.53224854 7.32658203 144.99027832 8.30175781 144.43188477 C9.33655273 143.85623779 10.37134766 143.28059082 11.4375 142.6875 C12.50194336 142.08156006 13.56638672 141.47562012 14.66308594 140.85131836 C16.9332954 139.5591395 19.2063441 138.27193848 21.48193359 136.98925781 C27.2647818 133.72705593 33.00292153 130.3871558 38.75 127.0625 C40.82795777 125.86559504 42.90607749 124.66897119 44.984375 123.47265625 C45.91053116 122.91815292 46.83668732 122.3636496 47.79090881 121.79234314 C51 120 51 120 54.16357422 118.7227478 C57.69864727 117.15585746 60.21560904 115.70067553 63 113 C64.75303164 107.38506179 64.54286986 101.96201115 64.390625 96.12890625 C64.39068139 94.4798042 64.3960309 92.8306946 64.40643311 91.18162537 C64.41957678 86.85814226 64.36119333 82.53851865 64.28753662 78.21575928 C64.22503999 73.7982132 64.23068105 69.38080107 64.23046875 64.96289062 C64.22006937 56.30728575 64.13405558 47.65456906 64 39 C63.05898438 38.70480469 62.11796875 38.40960938 61.1484375 38.10546875 C58 37 58 37 55.625 35.3125 C51.77453939 33.38726969 49.1837423 34.21998025 45 35 C45 35.66 45 36.32 45 37 C46.0209375 37.37125 46.0209375 37.37125 47.0625 37.75 C50.50972352 39.21690363 53.74725523 41.1412887 57 43 C57 65.11 57 87.22 57 110 C47.76 115.28 38.52 120.56 29 126 C24.28918714 128.70427108 19.57940832 131.40970392 14.875 134.125 C13.84503906 134.71796875 12.81507813 135.3109375 11.75390625 135.921875 C10.73941406 136.50710938 9.72492188 137.09234375 8.6796875 137.6953125 C7.72803711 138.24219727 6.77638672 138.78908203 5.79589844 139.35253906 C3.90423257 140.46718814 2.03251394 141.61628225 0.18066406 142.79589844 C-0.70137695 143.35567383 -1.58341797 143.91544922 -2.4921875 144.4921875 C-3.26675293 144.99862793 -4.04131836 145.50506836 -4.83935547 146.02685547 C-7 147 -7 147 -9.28173828 146.65673828 C-9.84876465 146.44001465 -10.41579102 146.22329102 -11 146 C-11 145.34 -11 144.68 -11 144 C-9.9162207 143.38294189 -9.9162207 143.38294189 -8.81054688 142.75341797 C4.19700952 135.34371236 17.19473549 127.91902956 30.125 120.375 C31.07568359 119.82054199 32.02636719 119.26608398 33.00585938 118.69482422 C33.91400391 118.1638916 34.82214844 117.63295898 35.7578125 117.0859375 C37.05960449 116.32555176 37.05960449 116.32555176 38.38769531 115.54980469 C40.19990743 114.47467174 42.00068812 113.38012639 43.79199219 112.27050781 C44.68305664 111.71975586 45.57412109 111.16900391 46.4921875 110.6015625 C47.28737793 110.10221191 48.08256836 109.60286133 48.90185547 109.08837891 C51 108 51 108 54 108 C54 87.21 54 66.42 54 45 C52.02 44.34 50.04 43.68 48 43 C46.63112481 42.2771943 45.2747191 41.52981565 43.9375 40.75 C40.68291778 39.03798138 40.68291778 39.03798138 37 39.75 C36.34 40.1625 35.68 40.575 35 41 C35 41.66 35 42.32 35 43 C36.0209375 43.37125 36.0209375 43.37125 37.0625 43.75 C40.56653748 45.24107978 43.70505661 47.09056284 47 49 C47.22842487 56.57997628 47.38589609 64.1590643 47.49438477 71.74169922 C47.53961242 74.32016157 47.60100696 76.89839353 47.67895508 79.47607422 C47.78829771 83.18514795 47.83920351 86.89116992 47.87890625 90.6015625 C47.92535782 91.75177887 47.97180939 92.90199524 48.01966858 94.08706665 C48.02458918 101.90950246 48.02458918 101.90950246 45.13768005 104.9821167 C42.82481702 106.54900459 40.51956267 107.79878031 38 109 C37.000896 109.60585938 36.00179199 110.21171875 34.97241211 110.8359375 C34.08303955 111.34382813 33.19366699 111.85171875 32.27734375 112.375 C31.25535889 112.96120117 30.23337402 113.54740234 29.18041992 114.15136719 C28.11025635 114.76141602 27.04009277 115.37146484 25.9375 116 C24.22464984 116.98214393 22.51180583 117.96429886 20.7993927 118.94720459 C19.62850499 119.6192776 18.45743274 120.29102919 17.28617859 120.96246338 C11.06909189 124.52829329 4.87674693 128.13606429 -1.3125 131.75 C-2.3135376 132.33394531 -3.3145752 132.91789063 -4.34594727 133.51953125 C-9.54280326 136.53989015 -9.54280326 136.53989015 -14.65698242 139.69628906 C-17 141 -17 141 -19.3125 140.6875 C-19.869375 140.460625 -20.42625 140.23375 -21 140 C-21 139.34 -21 138.68 -21 138 C-19.9162207 137.38294189 -19.9162207 137.38294189 -18.81054688 136.75341797 C-5.80299048 129.34371236 7.19473549 121.91902956 20.125 114.375 C21.07568359 113.82054199 22.02636719 113.26608398 23.00585938 112.69482422 C28.37692517 109.55471389 33.70904322 106.36282705 38.99951172 103.08837891 C41 102 41 102 43 102 C43.11067004 94.84606266 43.14327815 87.69479263 43.12207031 80.54003906 C43.12401491 78.10734161 43.14371607 75.6745901 43.18164062 73.2421875 C43.23313559 69.74053018 43.22039271 66.24403154 43.1953125 62.7421875 C43.22505157 61.65759247 43.25479065 60.57299744 43.28543091 59.45553589 C43.18809088 53.54053245 43.18809088 53.54053245 39.83441162 48.90435791 C35.17102752 45.79146308 35.17102752 45.79146308 29.78591919 45.26461792 C27.66351024 46.13855528 26.49553028 47.28014018 25 49 C26.0209375 49.37125 26.0209375 49.37125 27.0625 49.75 C30.50972352 51.21690363 33.74725523 53.1412887 37 55 C37 69.19 37 83.38 37 98 C32.91625 100.330625 28.8325 102.66125 24.625 105.0625 C14.69845816 110.73288152 4.77969448 116.4165361 -5.125 122.125 C-6.17091309 122.72707275 -7.21682617 123.32914551 -8.29443359 123.94946289 C-9.29297363 124.52559326 -10.29151367 125.10172363 -11.3203125 125.6953125 C-12.27196289 126.24219727 -13.22361328 126.78908203 -14.20410156 127.35253906 C-16.09576743 128.46718814 -17.96748606 129.61628225 -19.81933594 130.79589844 C-20.70137695 131.35567383 -21.58341797 131.91544922 -22.4921875 132.4921875 C-23.26675293 132.99862793 -24.04131836 133.50506836 -24.83935547 134.02685547 C-27 135 -27 135 -29.28173828 134.65673828 C-29.84876465 134.44001465 -30.41579102 134.22329102 -31 134 C-26.38456543 128.55746322 -20.45842594 125.67328238 -14.25 122.3125 C-11.98621607 121.06648959 -9.72319687 119.81908877 -7.4609375 118.5703125 C-6.35588867 117.96219727 -5.25083984 117.35408203 -4.11230469 116.72753906 C0.00412721 114.44264166 4.07377517 112.08571348 8.125 109.6875 C9.12043823 109.09956665 9.12043823 109.09956665 10.13598633 108.49975586 C13.53721227 106.48313708 16.92299176 104.44233405 20.30078125 102.38671875 C20.99606934 101.96495361 21.69135742 101.54318848 22.40771484 101.10864258 C23.72706431 100.30678152 25.04394894 99.50084583 26.35791016 98.69018555 C30.77850629 96 30.77850629 96 33 96 C33.10453321 90.5543538 33.14324837 85.11360333 33.12207031 79.66699219 C33.12401228 77.81630074 33.14366555 75.96553719 33.18164062 74.11523438 C33.81814491 63.59650104 33.81814491 63.59650104 29.83886719 54.38378906 C26.51847722 52.27546947 23.86300521 50.7653678 19.86376953 51.26904297 C17.71818663 52.03432436 17.71818663 52.03432436 15 54 C18.63 55.98 22.26 57.96 26 60 C26.32371265 64.41015385 26.55815776 68.81389743 26.71411133 73.23242188 C26.77913545 74.73104241 26.86761159 76.22884878 26.98071289 77.72460938 C27.3506988 82.74704249 27.37641471 87.12272576 26 92 C22.18808221 95.87978358 17.87952898 97.791333 13 100 C10.97255172 101.15565674 8.95755203 102.3334884 6.95703125 103.53515625 C4.91011172 104.71312542 2.86189763 105.88884747 0.8125 107.0625 C-1.44161427 108.35510607 -3.69551368 109.64808686 -5.94921875 110.94140625 C-6.80802139 111.43388351 -6.80802139 111.43388351 -7.68417358 111.93630981 C-11.31758256 114.02308337 -14.93792542 116.13089195 -18.54963684 118.25498962 C-20.95202505 119.66766709 -23.35772038 121.07466018 -25.76358032 122.48141479 C-27.47863998 123.48747019 -29.18894159 124.50162255 -30.89916992 125.51586914 C-31.93275635 126.11906982 -32.96634277 126.72227051 -34.03125 127.34375 C-35.40120117 128.15102539 -35.40120117 128.15102539 -36.79882812 128.97460938 C-37.8884082 129.48217773 -37.8884082 129.48217773 -39 130 C-39.66 129.67 -40.32 129.34 -41 129 C-41 128.01 -41 127.02 -41 126 C-40.2879541 125.59386475 -39.5759082 125.18772949 -38.84228516 124.76928711 C-25.46622111 117.13789282 -12.09613456 109.49614037 1.25 101.8125 C2.3126709 101.20204834 3.3753418 100.59159668 4.47021484 99.96264648 C8.9026396 97.40744636 13.30053389 94.83354175 17.609375 92.07421875 C21 90 21 90 23 90 C23.15198642 85.62332924 23.18078357 81.25411428 23.1875 76.875 C23.23197266 75.6375 23.27644531 74.4 23.32226562 73.125 C23.29263685 69.45103144 23.13268687 66.50000806 22 63 C18.74279883 59.84891641 15.43146904 57.97769167 11 57 C7.69175061 57.95738128 7.69175061 57.95738128 5 60 C8.63 61.98 12.26 63.96 16 66 C17.94912539 83.45883258 17.94912539 83.45883258 14.01953125 88.58203125 C11.22119149 90.25499281 8.38944785 91.61283772 5.39306641 92.89257812 C0.33431743 95.23357847 -4.38867234 98.23712521 -9.1875 101.0625 C-11.44527703 102.35780296 -13.70442102 103.65072582 -15.96484375 104.94140625 C-20.15104419 107.33761493 -24.31151852 109.77136934 -28.44648743 112.25498962 C-30.80739104 113.67205798 -33.17537099 115.07706076 -35.54385376 116.48141479 C-37.21873169 117.48133253 -38.88329895 118.49845631 -40.54760742 119.51586914 C-41.56830322 120.11906982 -42.58899902 120.72227051 -43.640625 121.34375 C-44.53297852 121.88193359 -45.42533203 122.42011719 -46.34472656 122.97460938 C-49.67864698 124.26207404 -51.58267243 123.91807926 -55 123 C-57.95703125 121.40625 -57.95703125 121.40625 -60.8125 119.5 C-62.24529297 118.55640625 -62.24529297 118.55640625 -63.70703125 117.59375 C-66 116 -66 116 -67 115 C-67.09498646 112.56603981 -67.12558417 110.16057048 -67.11352539 107.72631836 C-67.11367142 106.96539383 -67.11381744 106.2044693 -67.1139679 105.42048645 C-67.11326862 102.89357702 -67.10547555 100.36674038 -67.09765625 97.83984375 C-67.09579212 96.0924941 -67.0943682 94.34514393 -67.09336853 92.59779358 C-67.08954293 87.98968066 -67.07971229 83.38159905 -67.06866455 78.77349854 C-67.05845134 74.07491479 -67.0538711 69.37632601 -67.04882812 64.67773438 C-67.03809005 55.45180913 -67.02101313 46.22590716 -67 37 C-62.95574746 34.66663496 -58.91147548 32.33330361 -54.8671875 30 C-54.26992733 29.65541748 -53.67266716 29.31083496 -53.0573082 28.95581055 C-46.43711165 25.1363939 -39.81676954 21.31723117 -33.1953125 17.5 C-32.16019531 16.90316406 -31.12507813 16.30632812 -30.05859375 15.69140625 C-28.04829861 14.53234128 -26.0378755 13.37349824 -24.02734375 12.21484375 C-23.01027344 11.62832031 -21.99320312 11.04179687 -20.9453125 10.4375 C-19.97239258 9.87804687 -18.99947266 9.31859375 -17.99707031 8.7421875 C-15.88295236 7.51325742 -13.77900206 6.26675425 -11.68261719 5.0078125 C-10.60915039 4.36585938 -9.53568359 3.72390625 -8.4296875 3.0625 C-7.46015137 2.47597656 -6.49061523 1.88945312 -5.49169922 1.28515625 C-3 0 -3 0 0 0 Z " fill="#0E4B77" transform="translate(365,159)"/>
<path d="M0 0 C0.99 0.66 1.98 1.32 3 2 C-4.77578726 15.45597227 -13.22765984 27.70814273 -24 39 C-24.59312988 39.62567871 -25.18625977 40.25135742 -25.79736328 40.89599609 C-56.71374933 73.31605309 -100.76831335 97.64094578 -146.45410156 99.07714844 C-151.63836782 99.15843139 -156.81652246 99.10798912 -162 99 C-162 98.67 -162 98.34 -162 98 C-155.73 97.34 -149.46 96.68 -143 96 C-145.12179687 96.01160156 -147.24359375 96.02320313 -149.4296875 96.03515625 C-151.51822765 96.04298769 -153.60676607 96.04904111 -155.6953125 96.05493164 C-157.13054148 96.05991507 -158.56576551 96.06670425 -160.00097656 96.07543945 C-168.05100017 96.12315577 -176.00283763 96.06861751 -184 95 C-184 94.67 -184 94.34 -184 94 C-183.27522461 94.00523682 -182.55044922 94.01047363 -181.80371094 94.01586914 C-178.45248313 94.0369276 -175.10126933 94.04975061 -171.75 94.0625 C-170.61046875 94.07087891 -169.4709375 94.07925781 -168.296875 94.08789062 C-160.80118778 94.10918519 -153.46171698 93.72008971 -146 93 C-153.59 93 -161.18 93 -169 93 C-169 92.67 -169 92.34 -169 92 C-168.44763672 91.97494385 -167.89527344 91.9498877 -167.32617188 91.92407227 C-164.71738271 91.80492603 -162.10868541 91.68389671 -159.5 91.5625 C-158.5519751 91.51883301 -157.6039502 91.47516602 -156.62719727 91.43017578 C-152.14267614 91.21833239 -147.66219997 90.9902185 -143.18359375 90.67578125 C-142.46171875 90.62542725 -141.73984375 90.57507324 -140.99609375 90.52319336 C-139.04777358 90.38293834 -137.10003453 90.23467756 -135.15234375 90.0859375 C-132 90 -132 90 -130.09301758 90.55737305 C-127.50149873 91.105422 -125.90743859 90.6927255 -123.359375 89.99609375 C-122.4617041 89.7532666 -121.5640332 89.51043945 -120.63916016 89.26025391 C-119.6857373 88.98874512 -118.73231445 88.71723633 -117.75 88.4375 C-116.76435059 88.16083496 -115.77870117 87.88416992 -114.76318359 87.59912109 C-100.40306826 83.48589878 -87.17402383 78.02329683 -74 71 C-72.47826172 70.20335937 -72.47826172 70.20335937 -70.92578125 69.390625 C-56.89212051 61.65583791 -44.50232718 51.07031489 -33 40 C-32.37222656 39.42378906 -31.74445313 38.84757812 -31.09765625 38.25390625 C-23.92998042 31.49099329 -17.892267 23.24749874 -12.3515625 15.125 C-10 12 -10 12 -7 11 C-5.09291637 8.45459177 -5.09291637 8.45459177 -3.3125 5.4375 C-2.68988281 4.42558594 -2.06726563 3.41367187 -1.42578125 2.37109375 C-0.95527344 1.58863281 -0.48476563 0.80617188 0 0 Z " fill="#383D40" transform="translate(526,371)"/>
<path d="M0 0 C2 2 2 2 2.24723816 3.8662262 C2.24581314 4.62265915 2.24438812 5.3790921 2.24291992 6.15844727 C2.24753487 7.44471764 2.24753487 7.44471764 2.25224304 8.75697327 C2.24505753 9.68408615 2.23787201 10.61119904 2.23046875 11.56640625 C2.23001053 12.51563461 2.22955231 13.46486298 2.2290802 14.44285583 C2.22605638 16.45109303 2.21816624 18.45932784 2.20581055 20.4675293 C2.18755439 23.55330649 2.18530082 26.63878383 2.18554688 29.72460938 C2.18063183 31.67187761 2.17480357 33.6191438 2.16796875 35.56640625 C2.16685593 36.49554337 2.1657431 37.42468048 2.16459656 38.38197327 C2.15821671 39.23633469 2.15183685 40.09069611 2.14526367 40.97094727 C2.13954597 42.10440331 2.13954597 42.10440331 2.13371277 43.26075745 C2 45 2 45 1 46 C-2.14451368 46.48171273 -3.9870095 46.74428859 -7 46 C-9.66344445 43.72942134 -11.38230148 40.93729119 -13.25 38 C-14.36938626 36.34519785 -15.49051873 34.69157576 -16.61328125 33.0390625 C-17.17354004 32.19762695 -17.73379883 31.35619141 -18.31103516 30.48925781 C-20.89131051 26.68635415 -23.65602171 23.03196575 -26.4375 19.375 C-27.82277587 17.53806548 -29.20710723 15.70054271 -30.58544922 13.85839844 C-31.60929758 12.51329424 -32.65561427 11.18519444 -33.71533203 9.86816406 C-34.27462402 9.16143555 -34.83391602 8.45470703 -35.41015625 7.7265625 C-36.18758179 6.76484131 -36.18758179 6.76484131 -36.98071289 5.78369141 C-37.31707764 5.19507324 -37.65344238 4.60645508 -38 4 C-37.67 3.01 -37.34 2.02 -37 1 C-33.84238497 0.41780209 -31.14502862 0.28428233 -28 1 C-24.96617923 3.55957354 -22.963764 6.68847617 -20.8125 10 C-19.65245377 11.68757563 -18.49229853 13.37507634 -17.33203125 15.0625 C-16.83421143 15.81660156 -16.3363916 16.57070313 -15.82348633 17.34765625 C-13.32761864 20.97800925 -10.64332643 24.47556476 -8 28 C-7.67 19.09 -7.34 10.18 -7 1 C-4.48718205 -0.25640898 -2.78302919 -0.20872719 0 0 Z " fill="#084A78" transform="translate(293,357)"/>
<path d="M0 0 C0.77085937 0.25136719 1.54171875 0.50273437 2.3359375 0.76171875 C4.86451704 1.90975199 6.24669987 2.81896239 8 5 C9.43971303 10.2930626 9.54271859 14.72526363 8 20 C4.47881943 23.53191588 0.7683026 25.5670386 -4 27 C-6.0625 26.7890625 -6.0625 26.7890625 -8 26 C-8.85078125 25.70867187 -9.7015625 25.41734375 -10.578125 25.1171875 C-13.64046081 23.69346997 -15.67716807 22.47173141 -18 20 C-19.63361906 14.67583278 -19.66118058 10.31808505 -18 5 C-12.61058975 -0.60835504 -7.31999729 -3.20249882 0 0 Z " fill="#08090B" transform="translate(370,223)"/>
<path d="M0 0 C0.91644287 0.00523682 1.83288574 0.01047363 2.77709961 0.01586914 C3.76645508 0.0190918 4.75581055 0.02231445 5.77514648 0.02563477 C6.81606445 0.03401367 7.85698242 0.04239258 8.92944336 0.05102539 C10.49662109 0.05779297 10.49662109 0.05779297 12.09545898 0.06469727 C14.68600996 0.07652627 17.27644895 0.0930085 19.86694336 0.11352539 C19.86694336 2.75352539 19.86694336 5.39352539 19.86694336 8.11352539 C15.24694336 8.11352539 10.62694336 8.11352539 5.86694336 8.11352539 C5.87218018 9.19883545 5.87741699 10.28414551 5.8828125 11.40234375 C5.90086172 15.41470521 5.91237507 19.42706306 5.921875 23.43945312 C5.9269154 25.17871707 5.93374766 26.91797675 5.94238281 28.65722656 C5.95446128 31.15178476 5.96017444 33.64628712 5.96459961 36.14086914 C5.96976089 36.92316391 5.97492218 37.70545868 5.98023987 38.51145935 C5.98043562 40.37919653 5.9289403 42.24681743 5.86694336 44.11352539 C4.86694336 45.11352539 4.86694336 45.11352539 1.36694336 45.23852539 C-2.13305664 45.11352539 -2.13305664 45.11352539 -3.13305664 44.11352539 C-3.23091005 42.76808212 -3.26103649 41.41759976 -3.26245117 40.06860352 C-3.26560333 39.2110144 -3.26875549 38.35342529 -3.27200317 37.46984863 C-3.26997894 36.53757446 -3.26795471 35.60530029 -3.26586914 34.64477539 C-3.26682587 33.69413208 -3.26778259 32.74348877 -3.26876831 31.76403809 C-3.26945021 29.74983657 -3.26759526 27.73563287 -3.26342773 25.72143555 C-3.25807962 22.62682185 -3.26337241 19.53235329 -3.26977539 16.43774414 C-3.26911461 14.4859209 -3.26783345 12.53409775 -3.26586914 10.58227539 C-3.26789337 9.65000122 -3.2699176 8.71772705 -3.27200317 7.75720215 C-3.26885101 6.89961304 -3.26569885 6.04202393 -3.26245117 5.15844727 C-3.26165558 4.3997937 -3.26085999 3.64114014 -3.26004028 2.85949707 C-3.06893527 0.23188348 -2.62071401 0.13947946 0 0 Z " fill="#094C7A" transform="translate(453.133056640625,357.886474609375)"/>
<path d="M0 0 C0.33 0 0.66 0 1 0 C5.60446227 25.26972747 4.83880161 50.29596011 -0.29296875 75.44921875 C-0.91824582 78.58942236 -1.38303499 81.70389976 -1.8125 84.875 C-4.08670876 98.61345783 -9.73276797 111.65466157 -16 124 C-16.32258789 124.64098633 -16.64517578 125.28197266 -16.97753906 125.94238281 C-21.09342538 134.06552501 -25.50690956 141.70448925 -31 149 C-31.66 148.67 -32.32 148.34 -33 148 C-32.41992188 146.85724609 -32.41992188 146.85724609 -31.828125 145.69140625 C-31.30734375 144.65886719 -30.7865625 143.62632812 -30.25 142.5625 C-29.48429688 141.04849609 -29.48429688 141.04849609 -28.703125 139.50390625 C-27.44819994 136.92209941 -26.25564543 134.34479485 -25.1015625 131.71875 C-23.29511443 127.61581596 -21.36249994 123.5856958 -19.3972168 119.55688477 C-11.17920059 102.63669749 -5.64287943 86.4837009 -2 68 C-1.75121094 66.78441406 -1.50242187 65.56882812 -1.24609375 64.31640625 C1.51706413 47.91136403 0.90514058 29.87530541 -0.88549805 13.3972168 C-1 11 -1 11 0 8 C0.06665376 6.60560336 0.08538199 5.20830125 0.0625 3.8125 C0.041875 2.554375 0.02125 1.29625 0 0 Z " fill="#16181A" transform="translate(544,240)"/>
<path d="M0 0 C1.12753297 3.38259891 0.87828425 4.09311439 -0.21484375 7.3515625 C-0.48876953 8.20363281 -0.76269531 9.05570313 -1.04492188 9.93359375 C-1.63258541 11.70558575 -2.22364495 13.4764557 -2.81835938 15.24609375 C-4.4574784 20.36690119 -5.25473279 24.71012785 -5.05395508 30.08789062 C-4.99074982 32.32781625 -5.32552221 34.26917609 -5.875 36.4375 C-7.59864805 44.18160444 -8.19299975 52.11886987 -9 60 C-9.33 60 -9.66 60 -10 60 C-10 55.05 -10 50.1 -10 45 C-10.99 53.25 -11.98 61.5 -13 70 C-13.33 70 -13.66 70 -14 70 C-14.34510426 55.98522753 -14.23628411 42.67676073 -11 29 C-10.82887695 28.2668457 -10.65775391 27.53369141 -10.48144531 26.77832031 C-7.7818031 15.34540929 -7.7818031 15.34540929 -6 10 C-5.01 10 -4.02 10 -3 10 C-2.01 6.7 -1.02 3.4 0 0 Z " fill="#353B3E" transform="translate(195,212)"/>
<path d="M0 0 C6.15234375 -0.09765625 6.15234375 -0.09765625 8 0 C9.74545605 1.74545605 9.1302316 4.16124217 9.1328125 6.53125 C9.13474609 8.21154297 9.13474609 8.21154297 9.13671875 9.92578125 C9.13285156 11.10527344 9.12898438 12.28476562 9.125 13.5 C9.12886719 14.67949219 9.13273437 15.85898437 9.13671875 17.07421875 C9.13542969 18.19441406 9.13414062 19.31460937 9.1328125 20.46875 C9.13168457 21.50451172 9.13055664 22.54027344 9.12939453 23.60742188 C9 26 9 26 8 27 C4.5 27.125 4.5 27.125 1 27 C0 26 0 26 -0.11352539 23.49975586 C-0.10828857 22.41573486 -0.10305176 21.33171387 -0.09765625 20.21484375 C-0.09443359 19.04501953 -0.09121094 17.87519531 -0.08789062 16.66992188 C-0.07951172 15.43822266 -0.07113281 14.20652344 -0.0625 12.9375 C-0.05798828 11.70193359 -0.05347656 10.46636719 -0.04882812 9.19335938 C-0.03699608 6.12885883 -0.02051173 3.06445279 0 0 Z " fill="#084A77" transform="translate(363,376)"/>
<path d="M0 0 C0.495 0.99 0.495 0.99 1 2 C-12.19511608 20.86984242 -12.19511608 20.86984242 -18 27 C-18.66 27 -19.32 27 -20 27 C-20.21011719 27.54398437 -20.42023438 28.08796875 -20.63671875 28.6484375 C-22.50427044 31.8698304 -25.07839686 34.15286358 -27.8125 36.625 C-28.38492432 37.14771484 -28.95734863 37.67042969 -29.54711914 38.20898438 C-37.21192146 45.11326926 -45.37382289 51.34349042 -54 57 C-54.66 56.67 -55.32 56.34 -56 56 C-55.44570313 55.61328125 -54.89140625 55.2265625 -54.3203125 54.828125 C-53.23363281 54.04695313 -53.23363281 54.04695313 -52.125 53.25 C-51.04605469 52.48429687 -51.04605469 52.48429687 -49.9453125 51.703125 C-47.87520753 49.89074394 -47.20683729 48.42792857 -46 46 C-44.1875 44.39453125 -44.1875 44.39453125 -42 42.8125 C-36.71008087 38.83869237 -31.83884702 34.50785097 -27 30 C-26.33226562 29.38640625 -25.66453125 28.7728125 -24.9765625 28.140625 C-17.5128071 21.01197698 -11.16306051 12.64164169 -5.35546875 4.12890625 C-3 1 -3 1 0 0 Z " fill="#2A2E30" transform="translate(519,382)"/>
<path d="M0 0 C-12.47274705 8.3151647 -30.33065461 7.45898914 -44.75 7.375 C-45.99120102 7.36838348 -45.99120102 7.36838348 -47.25747681 7.3616333 C-55.89058046 7.29385561 -64.42230334 7.05918926 -73 6 C-73 5.67 -73 5.34 -73 5 C-72.27522461 5.00523682 -71.55044922 5.01047363 -70.80371094 5.01586914 C-67.45248313 5.0369276 -64.10126933 5.04975061 -60.75 5.0625 C-59.61046875 5.07087891 -58.4709375 5.07925781 -57.296875 5.08789062 C-49.80118778 5.10918519 -42.46171698 4.72008971 -35 4 C-42.59 4 -50.18 4 -58 4 C-58 3.67 -58 3.34 -58 3 C-57.44763672 2.97494385 -56.89527344 2.9498877 -56.32617188 2.92407227 C-53.71738271 2.80492603 -51.10868541 2.68389671 -48.5 2.5625 C-47.5519751 2.51883301 -46.6039502 2.47516602 -45.62719727 2.43017578 C-41.14267614 2.21833239 -36.66219997 1.9902185 -32.18359375 1.67578125 C-31.46171875 1.62542725 -30.73984375 1.57507324 -29.99609375 1.52319336 C-28.04777358 1.38293834 -26.10003453 1.23467756 -24.15234375 1.0859375 C-21 1 -21 1 -18.9375 1.5703125 C-15.21942562 2.39488545 -11.54505012 0.64153177 -7.97265625 -0.40625 C-4.90210654 -1.01955296 -2.98682743 -0.83609166 0 0 Z " fill="#25282B" transform="translate(415,460)"/>
<path d="M0 0 C3.5 0.125 3.5 0.125 4.5 1.125 C4.59909302 3.45660055 4.62970504 5.79129942 4.625 8.125 C4.62757813 9.40375 4.63015625 10.6825 4.6328125 12 C4.5 15.125 4.5 15.125 3.5 16.125 C1.16702567 16.16592937 -1.16705225 16.16741723 -3.5 16.125 C-4.93316898 13.25866205 -4.63200361 10.75264499 -4.625 7.5625 C-4.62757813 6.38558594 -4.63015625 5.20867187 -4.6328125 3.99609375 C-4.43860275 -0.20226405 -4.31259354 0.1540212 0 0 Z " fill="#084874" transform="translate(259.5,386.875)"/>
<path d="M0 0 C6.15234375 -0.09765625 6.15234375 -0.09765625 8 0 C9 1 9 1 9.1328125 3.90625 C9.13023437 5.0921875 9.12765625 6.278125 9.125 7.5 C9.12757813 8.6859375 9.13015625 9.871875 9.1328125 11.09375 C9 14 9 14 8 15 C4.5 15.125 4.5 15.125 1 15 C0 14 0 14 -0.09765625 10.83984375 C-0.08025391 8.90818359 -0.08025391 8.90818359 -0.0625 6.9375 C-0.05347656 5.64714844 -0.04445313 4.35679687 -0.03515625 3.02734375 C-0.02355469 2.02832031 -0.01195312 1.02929688 0 0 Z " fill="#094A78" transform="translate(363,358)"/>
<path d="M0 0 C0.33 0 0.66 0 1 0 C3.57177905 14.11416837 4.40100698 27.66245812 4 42 C2.515 42.495 2.515 42.495 1 43 C0.93941406 41.69546875 0.87882813 40.3909375 0.81640625 39.046875 C0.73225535 37.28122684 0.64758554 35.51560337 0.5625 33.75 C0.51883301 32.83935791 0.47516602 31.92871582 0.43017578 30.99047852 C0.13385812 25.04672586 -0.28562153 19.1340783 -0.9140625 13.21484375 C-1 11 -1 11 0 8 C0.06665376 6.60560336 0.08538199 5.20830125 0.0625 3.8125 C0.041875 2.554375 0.02125 1.29625 0 0 Z " fill="#1B1E20" transform="translate(544,240)"/>
<path d="M0 0 C0 3 0 3 -1.14453125 4.5078125 C-6.48765536 9.68826538 -12.16964576 14.37901502 -18 19 C-18.56154785 19.44907715 -19.1230957 19.8981543 -19.70166016 20.36083984 C-21.44069002 21.74867759 -23.18765657 23.12583057 -24.9375 24.5 C-25.48100098 24.93352783 -26.02450195 25.36705566 -26.58447266 25.8137207 C-29.30794793 27.92863369 -31.53548003 29.53249851 -35 30 C-33.04335878 27.97347874 -31.1805946 26.12747854 -28.875 24.5 C-26.89672994 23.14972798 -26.89672994 23.14972798 -26.1484375 21.12109375 C-24.73412286 18.5089412 -23.13447494 17.31841437 -20.75 15.5625 C-17.97685315 13.49265524 -15.28207694 11.41433259 -12.6875 9.125 C-10 7 -10 7 -8.03515625 6.55859375 C-5.5278284 5.87040204 -4.51278081 4.82047041 -2.75 2.9375 C-2.22921875 2.38964844 -1.7084375 1.84179688 -1.171875 1.27734375 C-0.78515625 0.85582031 -0.3984375 0.43429687 0 0 Z " fill="#272B2D" transform="translate(498,409)"/>
<path d="M0 0 C1.12753297 3.38259891 0.87828425 4.09311439 -0.21484375 7.3515625 C-0.48876953 8.20363281 -0.76269531 9.05570313 -1.04492188 9.93359375 C-1.63258541 11.70558575 -2.22364495 13.4764557 -2.81835938 15.24609375 C-4.4574784 20.36690119 -5.25473279 24.71012785 -5.05395508 30.08789062 C-4.99074982 32.32781625 -5.32552221 34.26917609 -5.875 36.4375 C-7.59864805 44.18160444 -8.19299975 52.11886987 -9 60 C-9.33 60 -9.66 60 -10 60 C-11.07136519 38.46281257 -7.59104021 20.10797365 0 0 Z " fill="#232628" transform="translate(195,212)"/>
<path d="M0 0 C1.24714971 3.74144913 0.60533804 4.46411253 -1.0625 7.9375 C-1.52664307 8.91058105 -1.99078613 9.88366211 -2.46899414 10.88623047 C-2.97422607 11.91377441 -3.47945801 12.94131836 -4 14 C-4.7568811 15.55871826 -4.7568811 15.55871826 -5.52905273 17.14892578 C-14.73951336 35.86975668 -14.73951336 35.86975668 -19 38 C-18.0495074 35.44098147 -17.08059534 33.12821986 -15.625 30.8125 C-14.234077 28.40513326 -13.24768972 26.20449691 -12.25 23.625 C-10.45634371 19.03351692 -8.49381975 14.54087528 -6.4375 10.0625 C-6.14456055 9.41168457 -5.85162109 8.76086914 -5.54980469 8.09033203 C-4.07166788 4.90325577 -2.73930008 2.25638395 0 0 Z " fill="#121415" transform="translate(533,345)"/>
<path d="M0 0 C8.16399501 1.91072224 16.0846018 4.23522439 24 7 C24 7.99 24 8.98 24 10 C24.66 10.33 25.32 10.66 26 11 C21.40675261 10.36886677 17.30529211 9.16657369 12.9375 7.625 C6.05743495 5.24671654 -0.86810193 3.47929758 -8 2 C-8 1.67 -8 1.34 -8 1 C-5.36 1 -2.72 1 0 1 C0 0.67 0 0.34 0 0 Z " fill="#292D2F" transform="translate(403,93)"/>
<path d="M0 0 C3.3 0 6.6 0 10 0 C10 2.64 10 5.28 10 8 C6.7 8 3.4 8 0 8 C0 5.36 0 2.72 0 0 Z " fill="#094C7A" transform="translate(436,358)"/>
<path d="M0 0 C0.99 0.66 1.98 1.32 3 2 C2.56429687 2.97195312 2.12859375 3.94390625 1.6796875 4.9453125 C-3.43079278 16.67071306 -6.88613574 28.60851462 -10 41 C-10.33 41 -10.66 41 -11 41 C-10.58246965 33.34527693 -8.49533816 26.4621406 -6.25390625 19.18359375 C-5.39203135 16.37988065 -4.63025919 13.57374201 -3.94140625 10.72265625 C-2.9618822 6.84926863 -1.65569707 3.61242996 0 0 Z " fill="#34393B" transform="translate(200,200)"/>
<path d="M0 0 C2.363515 4.14447746 1.83420689 6.45296942 0.8125 11.125 C0.67030029 11.7857251 0.52810059 12.4464502 0.3815918 13.12719727 C-0.80648778 18.50327368 -2.26679067 23.77578749 -4 29 C-4.66 29 -5.32 29 -6 29 C-6.33 29.66 -6.66 30.32 -7 31 C-5.48194535 24.14037922 -3.93456381 17.28779336 -2.375 10.4375 C-2.14554688 9.42880859 -1.91609375 8.42011719 -1.6796875 7.38085938 C-1.11999114 4.92052746 -0.56009152 2.46024199 0 0 Z " fill="#25292C" transform="translate(548,308)"/>
<path d="M0 0 C-3.07391974 1.23331876 -6.16018467 2.432125 -9.25 3.625 C-10.12269531 3.975625 -10.99539063 4.32625 -11.89453125 4.6875 C-13.16103516 5.17089844 -13.16103516 5.17089844 -14.453125 5.6640625 C-15.61569824 6.11966553 -15.61569824 6.11966553 -16.80175781 6.58447266 C-19.54633455 7.10327203 -20.68194471 6.46379189 -23 5 C-19.92608026 3.76668124 -16.83981533 2.567875 -13.75 1.375 C-12.87730469 1.024375 -12.00460937 0.67375 -11.10546875 0.3125 C-9.83896484 -0.17089844 -9.83896484 -0.17089844 -8.546875 -0.6640625 C-7.77182617 -0.96779785 -6.99677734 -1.2715332 -6.19824219 -1.58447266 C-3.45366545 -2.10327203 -2.31805529 -1.46379189 0 0 Z " fill="#33393B" transform="translate(435,454)"/>
<path d="M0 0 C0.33 0.66 0.66 1.32 1 2 C-0.59783187 4.29632123 -2.20283715 6.58699523 -3.8125 8.875 C-4.26431641 9.52597656 -4.71613281 10.17695313 -5.18164062 10.84765625 C-5.62314453 11.47285156 -6.06464844 12.09804688 -6.51953125 12.7421875 C-6.92276611 13.3182373 -7.32600098 13.89428711 -7.74145508 14.48779297 C-9 16 -9 16 -12 18 C-10.17886255 11.77778038 -7.32926405 5.89395067 -3 1 C-2.01 0.67 -1.02 0.34 0 0 Z " fill="#2D3134" transform="translate(519,382)"/>
<path d="M0 0 C0.33 0 0.66 0 1 0 C2.72870919 7.38630289 3.71574866 14.50051796 2 22 C1.34 22.33 0.68 22.66 0 23 C-0.19517554 21.06325815 -0.38087873 19.12555991 -0.5625 17.1875 C-0.66691406 16.10855469 -0.77132812 15.02960938 -0.87890625 13.91796875 C-1 11 -1 11 0 8 C0.06665376 6.60560336 0.08538199 5.20830125 0.0625 3.8125 C0.041875 2.554375 0.02125 1.29625 0 0 Z " fill="#262A2C" transform="translate(544,240)"/>
<path d="M0 0 C0.66 0.33 1.32 0.66 2 1 C0.10775143 2.60856218 -1.78856025 4.21186966 -3.6875 5.8125 C-4.21794922 6.26431641 -4.74839844 6.71613281 -5.29492188 7.18164062 C-8.37552442 9.77085871 -11.38972972 12.19802622 -15 14 C-15.66 13.67 -16.32 13.34 -17 13 C-16.44570313 12.61328125 -15.89140625 12.2265625 -15.3203125 11.828125 C-14.59585937 11.30734375 -13.87140625 10.7865625 -13.125 10.25 C-12.40570313 9.73953125 -11.68640625 9.2290625 -10.9453125 8.703125 C-8.89393441 6.90713937 -8.19746331 5.39993692 -7 3 C-3.9375 1.8125 -3.9375 1.8125 -1 1 C-0.67 0.67 -0.34 0.34 0 0 Z " fill="#1F2324" transform="translate(480,425)"/>
<path d="M0 0 C1.63996535 5.36502951 -0.28832845 9.49454095 -2.625 14.4375 C-3.305625 15.7059375 -3.305625 15.7059375 -4 17 C-4.33 17 -4.66 17 -5 17 C-4.53444296 10.59859065 -2.85288164 5.73230171 0 0 Z " fill="#0C0D0E" transform="translate(539,326)"/>
<path d="M0 0 C0.33 0.66 0.66 1.32 1 2 C-6.24997422 2.28307925 -12.90961228 1.50974035 -20 0 C-20 -0.33 -20 -0.66 -20 -1 C-13.26317029 -2.56670458 -6.6779163 -1.65496186 0 0 Z " fill="#34393C" transform="translate(403,93)"/>
<path d="M0 0 C0.99 0.66 1.98 1.32 3 2 C1.35 4.97 -0.3 7.94 -2 11 C-3.32 11 -4.64 11 -6 11 C-4.54955729 6.89041233 -2.48889248 3.56741255 0 0 Z " fill="#303537" transform="translate(526,371)"/>
<path d="M0 0 C0.33 0.99 0.66 1.98 1 3 C0.67 3.66 0.34 4.32 0 5 C-0.66 5 -1.32 5 -2 5 C-3.485 10.445 -3.485 10.445 -5 16 C-5.66 16 -6.32 16 -7 16 C-6.00956295 11.16371695 -5.04301154 6.52381127 -3 2 C-2.01 2 -1.02 2 0 2 C0 1.34 0 0.68 0 0 Z " fill="#2F3436" transform="translate(193,208)"/>
<path d="M0 0 C2.25998595 3.59462331 2.20868087 6.56595675 2.125 10.75 C2.10695313 11.92046875 2.08890625 13.0909375 2.0703125 14.296875 C2.03550781 15.63492188 2.03550781 15.63492188 2 17 C1.01 16.67 0.02 16.34 -1 16 C-0.979375 15.113125 -0.95875 14.22625 -0.9375 13.3125 C-0.99286219 10.37830369 -1.3305734 7.84506304 -2 5 C-1.67 5 -1.34 5 -1 5 C-0.67 3.35 -0.34 1.7 0 0 Z " fill="#313639" transform="translate(543,235)"/>
<path d="M0 0 C-3.13269705 3.13269705 -5.97328423 3.05494397 -10.25 3.0625 C-12.10625 3.0315625 -12.10625 3.0315625 -14 3 C-12.68 2.67 -11.36 2.34 -10 2 C-10 1.34 -10 0.68 -10 0 C-6.33694766 -0.74926071 -3.57644848 -1.2380014 0 0 Z " fill="#111315" transform="translate(404,460)"/>
<path d="M0 0 C0.33 0.66 0.66 1.32 1 2 C0.06421005 4.35981813 -0.93347808 6.69631264 -2 9 C-2.99 9 -3.98 9 -5 9 C-5.33 9.99 -5.66 10.98 -6 12 C-6.33 11.34 -6.66 10.68 -7 10 C-6.0625 7.375 -6.0625 7.375 -5 5 C-4.34 5.33 -3.68 5.66 -3 6 C-2.01 4.02 -1.02 2.04 0 0 Z " fill="#17191B" transform="translate(538,336)"/>
<path d="M0 0 C0.33 0.66 0.66 1.32 1 2 C1.66 2 2.32 2 3 2 C2.14285714 10.57142857 2.14285714 10.57142857 0 14 C0.03255208 11.98177083 0.06510417 9.96354167 0.09765625 7.9453125 C0.12649242 5.91814596 0.12649242 5.91814596 -1 4 C-0.5625 1.875 -0.5625 1.875 0 0 Z " fill="#1A1D1E" transform="translate(539,321)"/>
<path d="M0 0 C0.99 0.33 1.98 0.66 3 1 C3 1.66 3 2.32 3 3 C-2.17578125 6.22265625 -2.17578125 6.22265625 -4 7 C-4.99 6.67 -5.98 6.34 -7 6 C-6.21625 5.38125 -5.4325 4.7625 -4.625 4.125 C-2.03162353 2.10141339 -2.03162353 2.10141339 0 0 Z " fill="#2A2E30" transform="translate(447,438)"/>
<path d="M0 0 C0.99 0.33 1.98 0.66 3 1 C1.02 3.31 -0.96 5.62 -3 8 C-3.99 7.67 -4.98 7.34 -6 7 C-4.02 4.69 -2.04 2.38 0 0 Z " fill="#171A1C" transform="translate(487,398)"/>
<path d="M0 0 C1.46726798 3.81489674 0.43336419 6.29011622 -1 10 C-1.66 10 -2.32 10 -3 10 C-3.33 10.66 -3.66 11.32 -4 12 C-3.34 9.03 -2.68 6.06 -2 3 C-1.34 3 -0.68 3 0 3 C0 2.01 0 1.02 0 0 Z " fill="#2D3235" transform="translate(545,327)"/>
<path d="M0 0 C2.97 0.99 5.94 1.98 9 3 C5 5 5 5 2.25 4.125 C1.5075 3.75375 0.765 3.3825 0 3 C0 2.01 0 1.02 0 0 Z " fill="#151719" transform="translate(289,444)"/>
<path d="M0 0 C0.99 0.33 1.98 0.66 3 1 C0.69 3.31 -1.62 5.62 -4 8 C-4.66 7.34 -5.32 6.68 -6 6 C-4.02 4.02 -2.04 2.04 0 0 Z " fill="#343A3C" transform="translate(495,409)"/>
<path d="M0 0 C0.99 0.33 1.98 0.66 3 1 C1.44499019 4.81684226 -1.03595495 7.19195732 -4 10 C-2.8905928 6.51329166 -1.73662334 3.22515763 0 0 Z " fill="#232628" transform="translate(511,390)"/>
<path d="M0 0 C5.94 0.99 5.94 0.99 12 2 C12 2.33 12 2.66 12 3 C4 4.38461538 4 4.38461538 1 3 C0.67 2.01 0.34 1.02 0 0 Z " fill="#151618" transform="translate(316,454)"/>
<path d="M0 0 C3.46941546 0.45822468 6.67395049 0.89131683 10 2 C10 2.66 10 3.32 10 4 C6.7 3.34 3.4 2.68 0 2 C0 1.34 0 0.68 0 0 Z " fill="#353B3E" transform="translate(408,95)"/>
<path d="M0 0 C-3.44450737 2.29633824 -5.93812283 2.54016485 -10 3 C-9.67 2.01 -9.34 1.02 -9 0 C-5.8033 -1.37001429 -3.30096158 -0.8252404 0 0 Z " fill="#262A2C" transform="translate(415,460)"/>
<path d="M0 0 C4.455 0.99 4.455 0.99 9 2 C5 4 5 4 1.75 3.125 C0.8425 2.75375 -0.065 2.3825 -1 2 C-0.67 1.34 -0.34 0.68 0 0 Z " fill="#16191A" transform="translate(306,451)"/>
<path d="M0 0 C0.66 0 1.32 0 2 0 C0.79618552 2.49361571 -0.45428722 4.68143083 -2 7 C-2.66 7 -3.32 7 -4 7 C-2.92598892 4.08482708 -2.22189824 2.22189824 0 0 Z " fill="#363C3F" transform="translate(508,394)"/>
</svg>
